<svg width="16" height="16" viewBox="0 0 16 16" fill="none" xmlns="http://www.w3.org/2000/svg">
<path fill-rule="evenodd" clip-rule="evenodd" d="M13.0299 10.53C12.8893 10.6704 12.6987 10.7493 12.4999 10.7493C12.3012 10.7493 12.1105 10.6704 11.9699 10.53L7.99991 6.55995L4.02991 10.53C3.96125 10.6036 3.87845 10.6627 3.78645 10.7037C3.69445 10.7447 3.59513 10.7668 3.49443 10.7685C3.39373 10.7703 3.2937 10.7518 3.20031 10.7141C3.10692 10.6764 3.02209 10.6202 2.95087 10.549C2.87965 10.4778 2.82351 10.3929 2.78579 10.2995C2.74807 10.2062 2.72954 10.1061 2.73132 10.0054C2.73309 9.90473 2.75514 9.80541 2.79613 9.71341C2.83712 9.62141 2.89622 9.53861 2.96991 9.46995L7.46991 4.96995C7.61053 4.8295 7.80116 4.75061 7.99991 4.75061C8.19866 4.75061 8.38928 4.8295 8.52991 4.96995L13.0299 9.46995C13.1704 9.61058 13.2492 9.8012 13.2492 9.99995C13.2492 10.1987 13.1704 10.3893 13.0299 10.53Z" fill="black"/>
</svg>
