<svg width="16" height="16" viewBox="0 0 16 16" fill="none" xmlns="http://www.w3.org/2000/svg">
<path fill-rule="evenodd" clip-rule="evenodd" d="M2.97009 5.47005C3.11072 5.3296 3.30134 5.25071 3.50009 5.25071C3.69884 5.25071 3.88947 5.3296 4.03009 5.47005L8.00009 9.44005L11.9701 5.47005C12.0388 5.39636 12.1216 5.33726 12.2136 5.29627C12.3056 5.25528 12.4049 5.23323 12.5056 5.23146C12.6063 5.22968 12.7063 5.24821 12.7997 5.28593C12.8931 5.32365 12.9779 5.37979 13.0491 5.45101C13.1203 5.52223 13.1765 5.60706 13.2142 5.70045C13.2519 5.79384 13.2705 5.89387 13.2687 5.99457C13.2669 6.09527 13.2449 6.19459 13.2039 6.28659C13.1629 6.37859 13.1038 6.46139 13.0301 6.53005L8.53009 11.03C8.38947 11.1705 8.19884 11.2494 8.00009 11.2494C7.80134 11.2494 7.61072 11.1705 7.47009 11.03L2.97009 6.53005C2.82964 6.38942 2.75075 6.1988 2.75075 6.00005C2.75075 5.8013 2.82964 5.61067 2.97009 5.47005Z" fill="black"/>
</svg>
