<svg width="20" height="20" viewBox="0 0 20 20" fill="none" xmlns="http://www.w3.org/2000/svg">
<path fill-rule="evenodd" clip-rule="evenodd" d="M7.5001 14.1665C7.50013 14.3313 7.54902 14.4924 7.64059 14.6294C7.73217 14.7664 7.8623 14.8732 8.01455 14.9362C8.1668 14.9993 8.33433 15.0158 8.49596 14.9836C8.65758 14.9515 8.80605 14.8722 8.9226 14.7557L13.0893 10.589C13.2455 10.4327 13.3333 10.2208 13.3333 9.99982C13.3333 9.77885 13.2455 9.56693 13.0893 9.41066L8.9226 5.24399C8.80605 5.12748 8.65758 5.04814 8.49596 5.016C8.33433 4.98386 8.1668 5.00037 8.01455 5.06342C7.8623 5.12648 7.73217 5.23327 7.6406 5.37027C7.54902 5.50728 7.50013 5.66836 7.5001 5.83316L7.5001 14.1665Z" fill="black"/>
</svg>
