<svg width="20" height="20" viewBox="0 0 20 20" fill="none" xmlns="http://www.w3.org/2000/svg">
<path fill-rule="evenodd" clip-rule="evenodd" d="M5.83351 7.49985C5.66872 7.49989 5.50764 7.54878 5.37063 7.64035C5.23362 7.73192 5.12684 7.86206 5.06378 8.01431C5.00072 8.16656 4.98422 8.33408 5.01636 8.49571C5.0485 8.65734 5.12784 8.80581 5.24434 8.92235L9.41101 13.089C9.56728 13.2452 9.77921 13.333 10.0002 13.333C10.2211 13.333 10.4331 13.2452 10.5893 13.089L14.756 8.92235C14.8725 8.80581 14.9519 8.65734 14.984 8.49571C15.0161 8.33408 14.9996 8.16656 14.9366 8.01431C14.8735 7.86206 14.7667 7.73192 14.6297 7.64035C14.4927 7.54878 14.3316 7.49989 14.1668 7.49985L5.83351 7.49985Z" fill="black"/>
</svg>
