<svg width="46" height="28" viewBox="0 0 46 28" fill="none" xmlns="http://www.w3.org/2000/svg">
<g clip-path="url(#clip0_2414_17599)">
<path d="M23.5 27.8537C35.9264 27.8537 46 25.6664 46 22.9683C46 20.2702 35.9264 18.083 23.5 18.083C11.0736 18.083 1 20.2702 1 22.9683C1 25.6664 11.0736 27.8537 23.5 27.8537Z" fill="#F5F5F5"/>
<path d="M39.6719 9.5459L32.538 1.51859C32.1955 0.971432 31.6956 0.640625 31.169 0.640625H15.831C15.3044 0.640625 14.8045 0.971432 14.462 1.51789L7.32812 9.5466V15.9946H39.6719V9.5459Z" stroke="#D9D9D9" stroke-width="0.703125"/>
<path d="M30.2591 11.7594C30.2591 10.6393 30.958 9.71457 31.825 9.71387H39.6719V22.3718C39.6719 23.8534 38.7437 25.0678 37.5977 25.0678H9.40234C8.25625 25.0678 7.32812 23.8527 7.32812 22.3718V9.71387H15.175C16.042 9.71387 16.7409 10.6372 16.7409 11.7573V11.7727C16.7409 12.8928 17.4475 13.7973 18.3138 13.7973H28.6862C29.5525 13.7973 30.2591 12.8845 30.2591 11.7643V11.7594V11.7594Z" fill="#FAFAFA" stroke="#D9D9D9" stroke-width="0.703125"/>
</g>
<defs>
<clipPath id="clip0_2414_17599">
<rect width="45" height="28" fill="white" transform="translate(0.5)"/>
</clipPath>
</defs>
</svg>
