<svg width="45" height="28" viewBox="0 0 45 28" fill="none" xmlns="http://www.w3.org/2000/svg">
<g clip-path="url(#clip0_742_6)">
<mask id="mask0_742_6" style="mask-type:luminance" maskUnits="userSpaceOnUse" x="0" y="0" width="45" height="28">
<path d="M45 0H0V28H45V0Z" fill="white"/>
</mask>
<g mask="url(#mask0_742_6)">
<path d="M22.5 27.8537C34.9264 27.8537 45 25.6664 45 22.9683C45 20.2702 34.9264 18.083 22.5 18.083C10.0736 18.083 0 20.2702 0 22.9683C0 25.6664 10.0736 27.8537 22.5 27.8537Z" fill="#292B2E"/>
<path d="M38.6719 9.5459L31.538 1.51859C31.1955 0.971432 30.6956 0.640625 30.169 0.640625H14.831C14.3044 0.640625 13.8045 0.971432 13.462 1.51789L6.32812 9.5466V15.9946H38.6719V9.5459Z" stroke="#565961" stroke-width="0.703125"/>
<path d="M29.2591 11.7594C29.2591 10.6393 29.958 9.71457 30.825 9.71387H38.6719V22.3718C38.6719 23.8534 37.7437 25.0678 36.5977 25.0678H8.40234C7.25625 25.0678 6.32812 23.8527 6.32812 22.3718V9.71387H14.175C15.042 9.71387 15.7409 10.6372 15.7409 11.7573V11.7727C15.7409 12.8928 16.4475 13.7973 17.3138 13.7973H27.6862C28.5525 13.7973 29.2591 12.8845 29.2591 11.7643V11.7594Z" fill="#17181A" stroke="#565961" stroke-width="0.703125"/>
</g>
</g>
<defs>
<clipPath id="clip0_742_6">
<rect width="45" height="28" fill="white"/>
</clipPath>
</defs>
</svg>
