<svg width="64" height="64" viewBox="0 0 64 64" fill="none" xmlns="http://www.w3.org/2000/svg">
<path d="M26.212 3.35981C29.5765 2.63348 33.0428 2.54794 36.4301 3.10233L30.4856 10.0657C18.6442 10.3834 9.14258 20.0823 9.14258 32.0005C9.14258 44.1192 18.9667 53.9433 31.0854 53.9433C31.2322 53.9433 31.3786 53.9419 31.5247 53.939L28.1651 57.3299C26.5369 57.1001 24.9281 56.7236 23.3586 56.2026C19.5713 54.9454 16.1039 52.8769 13.1984 50.1415C10.2929 47.4061 8.0192 44.0696 6.53606 40.3649C5.05293 36.6603 4.39602 32.6766 4.61119 28.6918C4.82636 24.7071 5.90842 20.8173 7.78186 17.2938C9.6553 13.7704 12.275 10.6982 15.4582 8.29156C18.6414 5.88494 22.3113 4.20187 26.212 3.35981Z" fill="#2482EF"/>
<path d="M49.8537 38.3994C48.1018 46.626 41.2035 52.9482 32.6892 53.8354L25.402 61.1226C26.3383 61.3893 27.2914 61.6068 28.2573 61.7733C33.7852 62.7258 39.4722 61.9605 44.5517 59.5807C49.6312 57.2009 53.8589 53.321 56.6649 48.4639C58.4647 45.3486 59.6241 41.9273 60.0987 38.3994H49.8537Z" fill="#2482EF"/>
<path d="M34.0132 7.47893C41.0843 8.36554 46.9872 13.008 49.6617 19.346C45.9851 13.7508 39.6525 10.0566 32.4572 10.0566C32.2623 10.0566 32.068 10.0594 31.8745 10.0647L34.0132 7.47893Z" fill="#2482EF"/>
<path fill-rule="evenodd" clip-rule="evenodd" d="M32.0002 44.8002C39.0694 44.8002 44.8002 39.0694 44.8002 32.0002C44.8002 24.931 39.0694 19.2002 32.0002 19.2002C24.931 19.2002 19.2002 24.931 19.2002 32.0002C19.2002 39.0694 24.931 44.8002 32.0002 44.8002ZM32.0007 34.7435C33.5155 34.7435 34.7435 33.5155 34.7435 32.0007C34.7435 30.4858 33.5155 29.2578 32.0007 29.2578C30.4858 29.2578 29.2578 30.4858 29.2578 32.0007C29.2578 33.5155 30.4858 34.7435 32.0007 34.7435Z" fill="#2482EF"/>
<g filter="url(#filter0_d_849_70)">
<circle cx="32.0007" cy="32.0007" r="2.74286" fill="white"/>
</g>
<defs>
<filter id="filter0_d_849_70" x="25.6007" y="25.6007" width="12.8001" height="12.8001" filterUnits="userSpaceOnUse" color-interpolation-filters="sRGB">
<feFlood flood-opacity="0" result="BackgroundImageFix"/>
<feColorMatrix in="SourceAlpha" type="matrix" values="0 0 0 0 0 0 0 0 0 0 0 0 0 0 0 0 0 0 127 0" result="hardAlpha"/>
<feOffset/>
<feGaussianBlur stdDeviation="1.82857"/>
<feComposite in2="hardAlpha" operator="out"/>
<feColorMatrix type="matrix" values="0 0 0 0 1 0 0 0 0 1 0 0 0 0 1 0 0 0 1 0"/>
<feBlend mode="normal" in2="BackgroundImageFix" result="effect1_dropShadow_849_70"/>
<feBlend mode="normal" in="SourceGraphic" in2="effect1_dropShadow_849_70" result="shape"/>
</filter>
</defs>
</svg>
